<?xml version="1.0" encoding="UTF-8"?>
<!DOCTYPE svg PUBLIC "-//W3C//DTD SVG 1.1//EN" "http://www.w3.org/Graphics/SVG/1.1/DTD/svg11.dtd">
<!-- Creator: CorelDRAW Home & Student 2019 -->
<svg xmlns="http://www.w3.org/2000/svg" xml:space="preserve" width="144" height="42" version="1.1" style="shape-rendering:geometricPrecision; text-rendering:geometricPrecision; image-rendering:optimizeQuality; fill-rule:evenodd; clip-rule:evenodd"
viewBox="0 0 3772.65 1099.56"
 xmlns:xlink="http://www.w3.org/1999/xlink">
 <defs>
  <style type="text/css">
   <![CDATA[
    .fil0 {fill:white}
   ]]>
  </style>
 </defs>
 <g id="Ebene_x0020_1">
  <metadata id="CorelCorpID_0Corel-Layer"/>
  <path class="fil0" d="M1396.07 58.34l0 245.13 -58.36 0 0 -245.13 -77.04 0 0 -51.36 212.44 0 0 51.36 -77.04 0zm130.74 245.13l0 -296.49 196.1 0 0 51.36 -137.74 0 0 70.04 116.73 0 0 51.36 -116.73 0 0 72.37 137.74 0 0 51.36 -196.1 0zm427.22 -21.01c-18.68,16.34 -44.36,23.35 -72.37,23.35 -32.68,0 -58.36,-11.67 -79.38,-32.68 -11.67,-14.01 -21.01,-28.01 -23.35,-44.36 -2.33,-16.34 -4.67,-42.02 -4.67,-74.71 0,-32.68 2.33,-58.36 4.67,-74.71 2.33,-16.34 11.67,-32.68 23.35,-44.36 21.01,-21.01 49.03,-32.68 79.38,-32.68 28.01,0 53.69,7 72.37,23.35 18.68,16.34 32.68,39.69 37.35,70.04l-58.36 0c-2.33,-11.67 -9.34,-23.35 -16.34,-30.35 -9.34,-7 -18.68,-11.67 -32.68,-11.67 -16.34,0 -28.01,4.67 -37.35,16.34 -2.33,2.33 -4.67,7 -7,11.67 -2.33,4.67 -2.33,9.34 -4.67,14.01 0,7 -2.33,14.01 -2.33,23.35 0,9.34 0,21.01 0,35.02 0,14.01 0,25.68 0,35.02 0,9.34 2.33,16.34 2.33,23.35 0,7 2.33,11.67 4.67,14.01 2.33,4.67 4.67,7 7,11.67 9.34,9.34 21.01,16.34 37.35,16.34 14.01,0 25.68,-4.67 32.68,-11.67 9.34,-7 14.01,-18.68 16.34,-30.35l58.36 -0.02c-4.67,30.35 -16.34,53.7 -37.35,70.04zm252.13 21.01l0 -123.73 -100.38 0 0 123.73 -58.37 0 0 -296.49 58.37 0 0 121.4 100.38 0 0 -121.4 58.37 0 0 296.49 -58.37 0zm305.83 0l-116.73 -182.1 0 182.1 -58.36 0 0 -296.49 51.36 0 116.73 182.1 0 -182.1 58.36 0 0 296.49 -51.36 0zm126.07 0l0 -296.49 58.36 0 0 296.49 -58.36 0zm294.15 -21.01c-21.01,16.34 -46.69,23.35 -79.38,23.35 -23.35,0 -44.36,-2.33 -60.7,-9.34 -16.34,-7.01 -32.68,-16.34 -46.69,-30.35l37.35 -37.35c9.34,9.34 18.68,16.34 30.35,18.68 11.67,4.67 25.68,4.67 39.69,4.67 35.02,0 53.69,-11.67 53.69,-37.35 0,-9.34 -2.33,-18.68 -7,-23.35 -4.67,-4.67 -14.01,-9.34 -28.01,-11.67l-16.34 -2.33 -18.68 -2.33c-25.68,-4.67 -44.36,-11.67 -58.36,-25.68 -14.01,-14.01 -21.01,-32.68 -21.01,-58.36 0,-28.01 9.34,-49.03 28.01,-65.37 18.68,-16.34 44.36,-25.68 74.71,-25.68 21.01,0 39.69,2.33 53.69,7 16.34,4.67 30.35,14.01 42.02,25.68l-37.35 37.35c-9.34,-7 -18.68,-14.01 -28.01,-16.34 -9.34,-2.33 -21.01,-4.67 -32.68,-4.67 -14.01,0 -25.68,4.67 -35.02,11.67 -7,7 -11.67,16.34 -11.67,28.01 0,7 2.33,14.01 9.34,21.01 7,7 14.01,9.34 28.01,11.67l18.68 2.33 16.34 2.33c14.01,2.33 25.68,4.67 32.68,9.34 9.34,4.67 16.34,9.34 23.35,14.01 16.34,14.01 23.35,35.02 23.35,63.03 -0.01,32.69 -9.35,53.7 -30.36,70.04zm261.47 0c-18.68,16.34 -44.36,23.35 -72.37,23.35 -32.68,0 -58.36,-11.67 -79.38,-32.68 -11.67,-14.01 -21.01,-28.01 -23.35,-44.36 -2.33,-16.34 -4.67,-42.02 -4.67,-74.71 0,-32.68 2.33,-58.36 4.67,-74.71 2.33,-16.34 11.67,-32.68 23.35,-44.36 21.01,-21.01 49.03,-32.68 79.38,-32.68 28.01,0 53.69,7 72.37,23.35 18.68,16.34 32.68,39.69 37.35,70.04l-58.36 0c-2.33,-11.67 -9.34,-23.35 -16.34,-30.35 -9.34,-7 -18.68,-11.67 -32.68,-11.67 -16.34,0 -28.01,4.67 -37.35,16.34 -2.33,2.33 -4.67,7 -7,11.67 -2.33,4.67 -2.33,9.34 -4.67,14.01 0,7 -2.33,14.01 -2.33,23.35 0,9.34 0,21.01 0,35.02 0,14.01 0,25.68 0,35.02 0,9.34 2.33,16.34 2.33,23.35 0,7 2.33,11.67 4.67,14.01 2.33,4.67 4.67,7 7,11.67 9.34,9.34 21.01,16.34 37.35,16.34 14.01,0 25.68,-4.67 32.68,-11.67 9.34,-7 14.01,-18.68 16.34,-30.35l58.36 -0.02c-4.67,30.35 -16.34,53.7 -37.35,70.04zm249.8 21.01l0 -123.73 -100.39 0 0 123.73 -58.36 0 0 -296.49 58.36 0 0 121.4 100.39 0 0 -121.4 58.36 0 0 296.49 -58.36 0zm133.07 0l0 -296.49 196.1 0 0 51.36 -137.74 0 0 70.04 116.73 0 0 51.36 -116.73 0 0 72.37 137.74 0 0 51.36 -196.1 0zm-2105.77 338.51c-4.67,11.67 -14.01,23.35 -23.35,32.68 -9.34,9.34 -21.01,16.34 -35.02,21.01 -14.01,4.67 -28.01,7 -42.02,7 -14.01,0 -30.35,-2.33 -42.02,-7 -14.01,-4.67 -25.68,-11.67 -35.02,-21.01 -9.34,-9.34 -18.68,-21.01 -23.35,-32.68 -4.67,-11.67 -9.34,-28.01 -9.34,-42.02l0 -196.1 58.37 0 0 193.77c0,16.34 4.67,30.35 14.01,39.69 9.34,9.34 21.01,14.01 37.35,14.01 16.34,0 28.01,-4.67 37.35,-14.01 9.34,-9.34 14.01,-23.35 14.01,-39.69l0 -193.77 58.36 0 0 196.1c0,14.01 -4.66,28.02 -9.33,42.02zm249.79 58.37l-116.73 -182.1 0 182.1 -58.36 0 0 -296.49 51.36 0 116.73 182.1 0 -182.1 58.36 0 0 296.49 -51.36 0zm123.74 0l0 -296.49 58.36 0 0 296.49 -58.36 0zm235.79 0l-44.36 0 -98.05 -296.49 60.7 0 60.7 193.77 60.7 -193.77 60.69 0 -100.38 296.49zm135.4 0l0 -296.49 196.1 0 0 51.36 -137.74 0 0 70.04 116.73 -0.01 0 51.36 -116.73 0.01 0 72.37 137.74 0 0 51.36 -196.1 0zm413.22 0l-58.36 -119.06 -42.03 -0.01 0 119.06 -58.36 0.01 0 -296.49 116.73 0c14.01,0 28.01,2.33 39.69,7 11.67,4.67 23.35,11.67 30.35,18.68 9.34,9.34 14.01,18.68 18.68,28.01 4.67,11.67 7,23.35 7,35.02 0,18.68 -4.67,37.35 -16.34,49.03 -9.34,14.01 -23.35,23.35 -39.69,28.01l65.37 128.4 -63.04 0 0 2.34zm-16.34 -233.46c-7,-7 -18.68,-11.67 -30.35,-11.67l-53.7 0 0 79.38 53.7 -0.01c11.67,0 23.35,-4.67 30.35,-11.67 7,-7 11.67,-16.34 11.67,-28.01 0,-11.68 -2.34,-21.02 -11.67,-28.02zm294.15 212.45c-21.01,16.34 -46.69,23.35 -79.38,23.35 -23.35,0 -44.36,-2.33 -60.7,-9.34 -16.34,-7 -32.68,-16.34 -46.69,-30.35l37.35 -37.35c9.34,9.34 18.68,16.34 30.35,18.68 11.67,4.67 25.68,4.67 39.69,4.67 35.02,0 53.69,-11.67 53.69,-37.35 0,-9.34 -2.33,-18.68 -7,-23.35 -4.67,-4.67 -14.01,-9.34 -28.01,-11.67l-16.34 -2.33 -18.68 -2.33c-25.68,-4.67 -44.36,-11.67 -58.36,-25.68 -14.01,-14.01 -21.01,-32.68 -21.01,-58.36 0,-28.01 9.34,-49.03 28.01,-65.37 18.68,-16.34 44.36,-25.68 74.71,-25.68 21.01,0 39.69,2.33 53.69,7 16.34,4.67 30.35,14.01 42.02,25.68l-37.35 37.35c-9.34,-7 -18.68,-14.01 -28.01,-16.34 -9.34,-2.33 -21.01,-4.67 -32.68,-4.67 -14.01,0 -25.68,4.67 -35.02,11.67 -7,7 -11.67,16.34 -11.67,28.01 0,7 2.33,14.01 9.34,21.01 7,7 14.01,9.34 28.01,11.67l18.68 2.33 16.34 2.33c14.01,2.33 25.68,4.67 32.68,9.34 9.34,4.67 16.34,9.34 23.35,14.01 16.34,14.01 23.35,35.02 23.35,63.03 -0.01,30.35 -11.68,53.69 -30.36,70.04zm86.38 21.01l0 -296.49 58.36 0 0 296.49 -58.36 0zm242.79 -245.13l0 245.13 -58.36 0 0 -245.13 -77.04 0 0 -51.36 212.44 0 0 51.36 -77.04 0zm268.48 245.13l-18.68 -53.69 -102.72 -0.01 -18.68 53.69 -60.69 0.01 107.39 -296.49 44.35 0 107.39 296.49 -58.36 0zm-67.71 -210.11l-37.35 107.39 74.71 0 -37.36 -107.39zm-95.71 -140.08l51.36 0 0 51.36 -51.36 0 0 -51.36 0 0zm140.07 0l0 51.36 51.36 0 0 -51.36 -51.36 0 0 0zm212.45 105.06l0 245.13 -58.37 0 0 -245.13 -77.04 0 0 -51.36 212.45 0 0 51.36 -77.04 0zm-2222.5 567.3c-2.33,16.34 -11.67,32.68 -25.68,44.36 -9.34,9.34 -21.01,16.34 -35.02,21.01 -14.01,4.67 -28.01,7 -44.36,7l-107.39 0 0 -294.16 107.39 0c16.34,0 30.35,2.33 44.36,7 14.01,4.67 25.68,11.67 35.02,21.01 7,7 11.67,14.01 16.34,21.01 4.67,7 7,16.34 9.34,25.68 2.33,9.34 2.33,18.68 4.67,30.35 0,11.67 0,25.68 0,42.02 0,32.69 0,58.37 -4.67,74.72zm-53.7 -126.07c-2.33,-11.67 -4.67,-18.68 -9.34,-25.68 -9.34,-11.67 -23.35,-18.68 -44.36,-18.68l-44.35 0 0 193.77 44.36 0c18.68,0 32.68,-7 44.36,-18.68 4.67,-7 9.34,-16.34 9.34,-25.68 2.33,-11.67 2.33,-28.01 2.33,-53.69 0,-25.68 -2.34,-42.02 -2.34,-51.36zm277.81 200.77l-58.36 -119.06 -42.02 0 0 119.06 -58.37 0 0 -296.49 116.73 0c14.01,0 28.01,2.33 39.69,7 11.67,4.67 23.35,11.67 30.35,18.68 9.34,9.34 14.01,18.68 18.68,28.01 4.67,11.67 7,23.35 7,35.02 0,18.68 -4.67,37.35 -16.34,49.03 -9.34,14.01 -23.35,23.35 -39.69,28.01l65.37 128.4 -63.04 0.01 0 2.33zm-14 -235.79c-7,-7 -18.68,-11.67 -30.35,-11.67l-53.7 0 0 79.37 53.7 0c11.67,0 23.35,-4.67 30.35,-11.67 7,-7 11.67,-16.34 11.67,-28.01 0,-11.68 -4.67,-21.01 -11.67,-28.02zm130.73 235.79l0 -296.49 196.1 0 0 51.36 -137.73 0 0 70.04 116.72 0 0 51.36 -116.72 0 0 72.37 137.73 0 0 51.36 -196.1 0zm415.55 -21.01c-21.01,16.34 -46.69,23.35 -79.38,23.35 -23.35,0 -44.36,-2.33 -60.7,-9.34 -16.34,-7 -32.68,-16.34 -46.69,-30.35l35.03 -37.35c9.34,9.34 18.68,16.34 30.35,18.68 11.67,4.67 25.68,4.67 39.69,4.67 35.02,0 53.69,-11.67 53.69,-37.35 0,-9.34 -2.33,-18.68 -7,-23.35 -4.67,-4.67 -14.01,-9.34 -28.01,-11.67l-16.34 -2.33 -18.68 -2.33c-25.68,-4.67 -44.36,-11.67 -58.36,-25.68 -14.01,-14.01 -21.01,-32.68 -21.01,-58.36 0,-28.01 9.34,-49.03 28.01,-65.37 18.68,-16.34 44.36,-25.68 74.71,-25.68 21.01,0 39.69,2.33 53.69,7 16.34,4.67 30.35,14.01 42.02,25.68l-37.35 37.35c-9.34,-7 -18.68,-14.01 -28.01,-16.34 -9.34,-2.33 -21.01,-4.67 -32.68,-4.67 -14.01,0 -25.68,4.67 -35.02,11.67 -7,7 -11.67,16.34 -11.67,28.01 0,7 2.33,14.01 9.34,21.01 7,7 14.01,9.34 28.01,11.67l18.68 2.33 16.34 2.33c14.01,2.33 25.68,4.67 32.68,9.34 9.34,4.67 16.34,9.34 23.35,14.01 16.34,14.01 23.35,35.02 23.35,63.03 2.31,30.35 -9.36,53.7 -28.04,70.04zm296.49 -53.69c-2.33,16.34 -11.67,32.68 -25.68,44.36 -9.34,9.34 -21.01,16.34 -35.02,21.01 -14.01,4.67 -28.01,7 -44.36,7l-107.38 0 0 -294.16 107.39 0c16.34,0 30.35,2.33 44.36,7 14.01,4.67 25.68,11.67 35.02,21.01 7,7 11.67,14.01 16.34,21.01 4.67,7 7,16.34 9.34,25.68 2.33,9.34 2.33,18.68 4.67,30.35 0,11.67 0,25.68 0,42.02 -0.01,32.69 -0.01,58.37 -4.68,74.72zm-53.69 -126.07c-2.33,-11.67 -4.67,-18.68 -9.34,-25.68 -9.34,-11.67 -23.35,-18.68 -44.36,-18.68l-44.35 0 0 193.77 44.35 0c18.68,0 32.68,-7 44.36,-18.68 4.67,-7 9.34,-16.34 9.34,-25.68 2.33,-11.67 2.33,-28.01 2.33,-53.69 0,-25.68 -2.33,-42.02 -2.33,-51.36zm119.06 200.77l0 -296.49 196.1 0 0 51.36 -137.74 0 0 70.04 116.73 0 0 51.36 -116.73 0 0 72.37 137.74 0 0 51.36 -196.1 0zm429.56 0l-116.73 -182.1 0 182.1 -58.36 0 0 -296.49 51.36 0 116.73 182.1 0 -182.1 58.36 0 0 296.49 -51.36 0zm-2259.85 -2.33l329.17 -329.18 0 -427.22 -329.17 -329.17 -429.56 0 -329.18 329.17 0 0 0 0 0 427.22 329.17 329.17 429.57 0.01zm-415.56 -32.69l-310.49 -310.49 0 -401.55 0 0 310.5 -310.5 401.54 0.01 310.5 310.5 0 401.54 -310.5 310.49 -401.55 0zm86.38 -345.51l0 -345.52 -324.5 0 263.81 -263.81 350.18 0.01 263.81 263.81 0 0 0 0 -324.51 -0.01 0 345.51 -228.79 0.01zm263.81 32.68l0 -345.51 329.17 0 0 0 0 0 0 0 0 -39.69 -289.49 -289.49 -378.19 0.01 -289.49 289.48 0 39.69 329.17 0 0 345.51 298.83 0zm25.68 247.47l268.47 -268.47 0 -256.8 0 0 0 0 -231.12 -0.01 0 345.51 -427.22 0 0 -347.84 -231.12 0 0 256.8 270.81 268.47 350.18 0 0 2.34zm-364.19 32.68l-289.49 -289.49 0 -303.49 0 0 0 0 296.49 0 0 345.51 364.19 0.01 0 -345.52 296.49 0 0 303.49 -289.49 289.49 -378.19 0z"/>
 </g>
</svg>
